<?xml version="1.0" encoding="us-ascii" standalone="no"?><svg xmlns="http://www.w3.org/2000/svg" xmlns:xlink="http://www.w3.org/1999/xlink" contentStyleType="text/css" height="1730px" preserveAspectRatio="none" style="width:1645px;height:1730px;background:#FFFFFF;" version="1.1" viewBox="0 0 1645 1730" width="1645px" zoomAndPan="magnify"><defs/><g><!--cluster Client (via HTTP)--><g id="cluster_Client (via HTTP)"><polygon fill="none" points="1011,16,1021,6,1216,6,1216,116,1206,126,1011,126,1011,16" style="stroke:#181818;stroke-width:1.0;"/><line style="stroke:#181818;stroke-width:1.0;" x1="1206" x2="1216" y1="16" y2="6"/><line style="stroke:#181818;stroke-width:1.0;" x1="1011" x2="1206" y1="16" y2="16"/><line style="stroke:#181818;stroke-width:1.0;" x1="1206" x2="1206" y1="16" y2="126"/><text fill="#000000" font-family="sans-serif" font-size="14" font-weight="bold" lengthAdjust="spacing" textLength="115" x="1052" y="34.1074">Client (via HTTP)</text></g><!--cluster Backend Infrastructure--><g id="cluster_Backend Infrastructure"><polygon fill="none" points="640,160,650,150,1584,150,1584,770,1574,780,640,780,640,160" style="stroke:#181818;stroke-width:1.0;"/><line style="stroke:#181818;stroke-width:1.0;" x1="1574" x2="1584" y1="160" y2="150"/><line style="stroke:#181818;stroke-width:1.0;" x1="640" x2="1574" y1="160" y2="160"/><line style="stroke:#181818;stroke-width:1.0;" x1="1574" x2="1574" y1="160" y2="780"/><text fill="#000000" font-family="sans-serif" font-size="14" font-weight="bold" lengthAdjust="spacing" textLength="162" x="1027" y="178.1074">Backend Infrastructure</text></g><!--cluster Node-js--><g id="cluster_Node-js"><path d="M666.5,200 L721.5,200 A3.75,3.75 0 0 1 724,202.5 L731,224.6211 L1557.5,224.6211 A2.5,2.5 0 0 1 1560,227.1211 L1560,753.5 A2.5,2.5 0 0 1 1557.5,756 L666.5,756 A2.5,2.5 0 0 1 664,753.5 L664,202.5 A2.5,2.5 0 0 1 666.5,200 " fill="none" style="stroke:#000000;stroke-width:1.5;"/><line style="stroke:#000000;stroke-width:1.5;" x1="664" x2="731" y1="224.6211" y2="224.6211"/><text fill="#000000" font-family="sans-serif" font-size="14" font-weight="bold" lengthAdjust="spacing" textLength="54" x="668" y="217.1074">Node-js</text></g><!--cluster Express-js--><g id="cluster_Express-js"><path d="M690.5,245 L765.5,245 A3.75,3.75 0 0 1 768,247.5 L775,269.6211 L1533.5,269.6211 A2.5,2.5 0 0 1 1536,272.1211 L1536,729.5 A2.5,2.5 0 0 1 1533.5,732 L690.5,732 A2.5,2.5 0 0 1 688,729.5 L688,247.5 A2.5,2.5 0 0 1 690.5,245 " fill="none" style="stroke:#000000;stroke-width:1.5;"/><line style="stroke:#000000;stroke-width:1.5;" x1="688" x2="775" y1="269.6211" y2="269.6211"/><text fill="#000000" font-family="sans-serif" font-size="14" font-weight="bold" lengthAdjust="spacing" textLength="74" x="692" y="262.1074">Express-js</text></g><!--cluster control flow orchestrator--><g id="cluster_control flow orchestrator"><rect fill="none" height="102" rx="2.5" ry="2.5" style="stroke:#181818;stroke-width:1.0;" width="191" x="1016" y="290"/><path d="M1201,290 L1201,301.6211 L1191,311.6211 L1016,311.6211 " fill="none" style="stroke:#181818;stroke-width:1.0;"/><text fill="#000000" font-family="sans-serif" font-size="14" font-weight="bold" lengthAdjust="spacing" textLength="175" x="1019" y="306.1074">control flow orchestrator</text></g><!--cluster middleware--><g id="cluster_middleware"><rect fill="none" height="118" rx="2.5" ry="2.5" style="stroke:#181818;stroke-width:1.0;" width="378" x="1103" y="424"/><path d="M1194,424 L1194,435.6211 L1184,445.6211 L1103,445.6211 " fill="none" style="stroke:#181818;stroke-width:1.0;"/><text fill="#000000" font-family="sans-serif" font-size="14" font-weight="bold" lengthAdjust="spacing" textLength="81" x="1106" y="440.1074">middleware</text></g><!--cluster routes--><g id="cluster_routes"><rect fill="none" height="118" rx="2.5" ry="2.5" style="stroke:#181818;stroke-width:1.0;" width="784" x="720" y="582"/><path d="M776,582 L776,593.6211 L766,603.6211 L720,603.6211 " fill="none" style="stroke:#181818;stroke-width:1.0;"/><text fill="#000000" font-family="sans-serif" font-size="14" font-weight="bold" lengthAdjust="spacing" textLength="46" x="723" y="598.1074">routes</text></g><!--cluster Business Logic--><g id="cluster_Business Logic"><polygon fill="none" points="16,814,26,804,1628,804,1628,1703,1618,1713,16,1713,16,814" style="stroke:#181818;stroke-width:1.0;"/><line style="stroke:#181818;stroke-width:1.0;" x1="1618" x2="1628" y1="814" y2="804"/><line style="stroke:#181818;stroke-width:1.0;" x1="16" x2="1618" y1="814" y2="814"/><line style="stroke:#181818;stroke-width:1.0;" x1="1618" x2="1618" y1="814" y2="1713"/><text fill="#000000" font-family="sans-serif" font-size="14" font-weight="bold" lengthAdjust="spacing" textLength="107" x="764.5" y="832.1074">Business Logic</text></g><!--cluster Application layer--><g id="cluster_Application layer"><rect fill="none" height="118" rx="2.5" ry="2.5" style="stroke:#181818;stroke-width:1.0;" width="904" x="679" y="862"/><path d="M805,862 L805,873.6211 L795,883.6211 L679,883.6211 " fill="none" style="stroke:#181818;stroke-width:1.0;"/><text fill="#000000" font-family="sans-serif" font-size="14" font-weight="bold" lengthAdjust="spacing" textLength="116" x="682" y="878.1074">Application layer</text></g><!--cluster Data Layer--><g id="cluster_Data Layer"><rect fill="none" height="661" rx="2.5" ry="2.5" style="stroke:#181818;stroke-width:1.0;" width="1535" x="48" y="1020"/><path d="M131,1020 L131,1031.6211 L121,1041.6211 L48,1041.6211 " fill="none" style="stroke:#181818;stroke-width:1.0;"/><text fill="#000000" font-family="sans-serif" font-size="14" font-weight="bold" lengthAdjust="spacing" textLength="73" x="51" y="1036.1074">Data Layer</text></g><!--cluster types--><g id="cluster_types"><rect fill="none" height="281" rx="2.5" ry="2.5" style="stroke:#181818;stroke-width:1.0;" width="503" x="88" y="1081"/><path d="M136,1081 L136,1092.6211 L126,1102.6211 L88,1102.6211 " fill="none" style="stroke:#181818;stroke-width:1.0;"/><text fill="#000000" font-family="sans-serif" font-size="14" font-weight="bold" lengthAdjust="spacing" textLength="38" x="91" y="1097.1074">types</text></g><!--cluster mongoose--><g id="cluster_mongoose"><path d="M625.5,1191 L700.5,1191 A3.75,3.75 0 0 1 703,1193.5 L710,1215.6211 L1073.5,1215.6211 A2.5,2.5 0 0 1 1076,1218.1211 L1076,1549.5 A2.5,2.5 0 0 1 1073.5,1552 L625.5,1552 A2.5,2.5 0 0 1 623,1549.5 L623,1193.5 A2.5,2.5 0 0 1 625.5,1191 " fill="none" style="stroke:#000000;stroke-width:1.5;"/><line style="stroke:#000000;stroke-width:1.5;" x1="623" x2="710" y1="1215.6211" y2="1215.6211"/><text fill="#000000" font-family="sans-serif" font-size="14" font-weight="bold" lengthAdjust="spacing" textLength="74" x="627" y="1208.1074">mongoose</text></g><!--cluster documents--><g id="cluster_documents"><rect fill="none" height="276" rx="2.5" ry="2.5" style="stroke:#181818;stroke-width:1.0;" width="389" x="655" y="1244"/><path d="M743,1244 L743,1255.6211 L733,1265.6211 L655,1265.6211 " fill="none" style="stroke:#181818;stroke-width:1.0;"/><text fill="#000000" font-family="sans-serif" font-size="14" font-weight="bold" lengthAdjust="spacing" textLength="78" x="658" y="1260.1074">documents</text></g><!--cluster models--><g id="cluster_models"><rect fill="none" height="239" rx="2.5" ry="2.5" style="stroke:#181818;stroke-width:1.0;" width="337" x="1108" y="1402"/><path d="M1169,1402 L1169,1413.6211 L1159,1423.6211 L1108,1423.6211 " fill="none" style="stroke:#181818;stroke-width:1.0;"/><text fill="#000000" font-family="sans-serif" font-size="14" font-weight="bold" lengthAdjust="spacing" textLength="51" x="1111" y="1418.1074">models</text></g><!--entity request--><g id="elem_request"><ellipse cx="1059" cy="79" fill="#F1F1F1" rx="8" ry="8" style="stroke:#181818;stroke-width:0.5;"/><text fill="#000000" font-family="sans-serif" font-size="14" lengthAdjust="spacing" textLength="48" x="1035" y="111.1074">request</text></g><!--entity response--><g id="elem_response"><ellipse cx="1163" cy="79" fill="#F1F1F1" rx="8" ry="8" style="stroke:#181818;stroke-width:0.5;"/><text fill="#000000" font-family="sans-serif" font-size="14" lengthAdjust="spacing" textLength="59" x="1133.5" y="111.1074">response</text></g><!--entity AuthorizationMiddleware--><g id="elem_AuthorizationMiddleware"><rect fill="#F1F1F1" height="48.6211" rx="2.5" ry="2.5" style="stroke:#181818;stroke-width:0.5;" width="193" x="882.5" y="469"/><rect fill="#F1F1F1" height="10" style="stroke:#181818;stroke-width:0.5;" width="15" x="1055.5" y="474"/><rect fill="#F1F1F1" height="2" style="stroke:#181818;stroke-width:0.5;" width="4" x="1053.5" y="476"/><rect fill="#F1F1F1" height="2" style="stroke:#181818;stroke-width:0.5;" width="4" x="1053.5" y="480"/><text fill="#000000" font-family="sans-serif" font-size="14" lengthAdjust="spacing" textLength="153" x="897.5" y="504.1074">AuthorizationMiddleware</text></g><!--entity Server--><g id="elem_Server"><rect fill="#F1F1F1" height="48.6211" rx="2.5" ry="2.5" style="stroke:#181818;stroke-width:0.5;" width="82" x="1070" y="327"/><rect fill="#F1F1F1" height="10" style="stroke:#181818;stroke-width:0.5;" width="15" x="1132" y="332"/><rect fill="#F1F1F1" height="2" style="stroke:#181818;stroke-width:0.5;" width="4" x="1130" y="334"/><rect fill="#F1F1F1" height="2" style="stroke:#181818;stroke-width:0.5;" width="4" x="1130" y="338"/><text fill="#000000" font-family="sans-serif" font-size="14" lengthAdjust="spacing" textLength="42" x="1085" y="362.1074">Server</text></g><!--entity JSON parser--><g id="elem_JSON parser"><rect fill="#F1F1F1" height="48.6211" rx="2.5" ry="2.5" style="stroke:#181818;stroke-width:0.5;" width="120" x="1337" y="469"/><rect fill="#F1F1F1" height="10" style="stroke:#181818;stroke-width:0.5;" width="15" x="1437" y="474"/><rect fill="#F1F1F1" height="2" style="stroke:#181818;stroke-width:0.5;" width="4" x="1435" y="476"/><rect fill="#F1F1F1" height="2" style="stroke:#181818;stroke-width:0.5;" width="4" x="1435" y="480"/><text fill="#000000" font-family="sans-serif" font-size="14" lengthAdjust="spacing" textLength="80" x="1352" y="504.1074">JSON parser</text></g><!--entity LoggerMiddleware--><g id="elem_LoggerMiddleware"><rect fill="#F1F1F1" height="48.6211" rx="2.5" ry="2.5" style="stroke:#181818;stroke-width:0.5;" width="156" x="1146" y="469"/><rect fill="#F1F1F1" height="10" style="stroke:#181818;stroke-width:0.5;" width="15" x="1282" y="474"/><rect fill="#F1F1F1" height="2" style="stroke:#181818;stroke-width:0.5;" width="4" x="1280" y="476"/><rect fill="#F1F1F1" height="2" style="stroke:#181818;stroke-width:0.5;" width="4" x="1280" y="480"/><text fill="#000000" font-family="sans-serif" font-size="14" lengthAdjust="spacing" textLength="116" x="1161" y="504.1074">LoggerMiddleware</text></g><!--entity UserRoute--><g id="elem_UserRoute"><rect fill="#F1F1F1" height="48.6211" rx="2.5" ry="2.5" style="stroke:#181818;stroke-width:0.5;" width="107" x="1372.5" y="627"/><rect fill="#F1F1F1" height="10" style="stroke:#181818;stroke-width:0.5;" width="15" x="1459.5" y="632"/><rect fill="#F1F1F1" height="2" style="stroke:#181818;stroke-width:0.5;" width="4" x="1457.5" y="634"/><rect fill="#F1F1F1" height="2" style="stroke:#181818;stroke-width:0.5;" width="4" x="1457.5" y="638"/><text fill="#000000" font-family="sans-serif" font-size="14" lengthAdjust="spacing" textLength="67" x="1387.5" y="662.1074">UserRoute</text></g><!--entity ProductRoute--><g id="elem_ProductRoute"><rect fill="#F1F1F1" height="48.6211" rx="2.5" ry="2.5" style="stroke:#181818;stroke-width:0.5;" width="127" x="1210.5" y="627"/><rect fill="#F1F1F1" height="10" style="stroke:#181818;stroke-width:0.5;" width="15" x="1317.5" y="632"/><rect fill="#F1F1F1" height="2" style="stroke:#181818;stroke-width:0.5;" width="4" x="1315.5" y="634"/><rect fill="#F1F1F1" height="2" style="stroke:#181818;stroke-width:0.5;" width="4" x="1315.5" y="638"/><text fill="#000000" font-family="sans-serif" font-size="14" lengthAdjust="spacing" textLength="87" x="1225.5" y="662.1074">ProductRoute</text></g><!--entity CartRoute--><g id="elem_CartRoute"><rect fill="#F1F1F1" height="48.6211" rx="2.5" ry="2.5" style="stroke:#181818;stroke-width:0.5;" width="105" x="1070.5" y="627"/><rect fill="#F1F1F1" height="10" style="stroke:#181818;stroke-width:0.5;" width="15" x="1155.5" y="632"/><rect fill="#F1F1F1" height="2" style="stroke:#181818;stroke-width:0.5;" width="4" x="1153.5" y="634"/><rect fill="#F1F1F1" height="2" style="stroke:#181818;stroke-width:0.5;" width="4" x="1153.5" y="638"/><text fill="#000000" font-family="sans-serif" font-size="14" lengthAdjust="spacing" textLength="65" x="1085.5" y="662.1074">CartRoute</text></g><!--entity OrderRoute--><g id="elem_OrderRoute"><rect fill="#F1F1F1" height="48.6211" rx="2.5" ry="2.5" style="stroke:#181818;stroke-width:0.5;" width="115" x="920.5" y="627"/><rect fill="#F1F1F1" height="10" style="stroke:#181818;stroke-width:0.5;" width="15" x="1015.5" y="632"/><rect fill="#F1F1F1" height="2" style="stroke:#181818;stroke-width:0.5;" width="4" x="1013.5" y="634"/><rect fill="#F1F1F1" height="2" style="stroke:#181818;stroke-width:0.5;" width="4" x="1013.5" y="638"/><text fill="#000000" font-family="sans-serif" font-size="14" lengthAdjust="spacing" textLength="75" x="935.5" y="662.1074">OrderRoute</text></g><!--entity PayPalRoute--><g id="elem_PayPalRoute"><rect fill="#F1F1F1" height="48.6211" rx="2.5" ry="2.5" style="stroke:#181818;stroke-width:0.5;" width="122" x="763" y="627"/><rect fill="#F1F1F1" height="10" style="stroke:#181818;stroke-width:0.5;" width="15" x="865" y="632"/><rect fill="#F1F1F1" height="2" style="stroke:#181818;stroke-width:0.5;" width="4" x="863" y="634"/><rect fill="#F1F1F1" height="2" style="stroke:#181818;stroke-width:0.5;" width="4" x="863" y="638"/><text fill="#000000" font-family="sans-serif" font-size="14" lengthAdjust="spacing" textLength="82" x="778" y="662.1074">PayPalRoute</text></g><!--entity ErrorMiddleware--><g id="elem_ErrorMiddleware"><polygon fill="#F1F1F1" points="704.5,479,714.5,469,847.5,469,847.5,507.6211,837.5,517.6211,704.5,517.6211,704.5,479" style="stroke:#181818;stroke-width:0.5;"/><line style="stroke:#181818;stroke-width:0.5;" x1="837.5" x2="847.5" y1="479" y2="469"/><line style="stroke:#181818;stroke-width:0.5;" x1="704.5" x2="837.5" y1="479" y2="479"/><line style="stroke:#181818;stroke-width:0.5;" x1="837.5" x2="837.5" y1="479" y2="517.6211"/><text fill="#000000" font-family="sans-serif" font-size="14" lengthAdjust="spacing" textLength="103" x="719.5" y="504.1074">ErrorMiddleware</text></g><!--entity UserController--><g id="elem_UserController"><rect fill="#F1F1F1" height="48.6211" rx="2.5" ry="2.5" style="stroke:#181818;stroke-width:0.5;" width="131" x="1408.5" y="907"/><rect fill="#F1F1F1" height="10" style="stroke:#181818;stroke-width:0.5;" width="15" x="1519.5" y="912"/><rect fill="#F1F1F1" height="2" style="stroke:#181818;stroke-width:0.5;" width="4" x="1517.5" y="914"/><rect fill="#F1F1F1" height="2" style="stroke:#181818;stroke-width:0.5;" width="4" x="1517.5" y="918"/><text fill="#000000" font-family="sans-serif" font-size="14" lengthAdjust="spacing" textLength="91" x="1423.5" y="942.1074">UserController</text></g><!--entity ProductController--><g id="elem_ProductController"><rect fill="#F1F1F1" height="48.6211" rx="2.5" ry="2.5" style="stroke:#181818;stroke-width:0.5;" width="151" x="1222.5" y="907"/><rect fill="#F1F1F1" height="10" style="stroke:#181818;stroke-width:0.5;" width="15" x="1353.5" y="912"/><rect fill="#F1F1F1" height="2" style="stroke:#181818;stroke-width:0.5;" width="4" x="1351.5" y="914"/><rect fill="#F1F1F1" height="2" style="stroke:#181818;stroke-width:0.5;" width="4" x="1351.5" y="918"/><text fill="#000000" font-family="sans-serif" font-size="14" lengthAdjust="spacing" textLength="111" x="1237.5" y="942.1074">ProductController</text></g><!--entity CartController--><g id="elem_CartController"><rect fill="#F1F1F1" height="48.6211" rx="2.5" ry="2.5" style="stroke:#181818;stroke-width:0.5;" width="129" x="1058.5" y="907"/><rect fill="#F1F1F1" height="10" style="stroke:#181818;stroke-width:0.5;" width="15" x="1167.5" y="912"/><rect fill="#F1F1F1" height="2" style="stroke:#181818;stroke-width:0.5;" width="4" x="1165.5" y="914"/><rect fill="#F1F1F1" height="2" style="stroke:#181818;stroke-width:0.5;" width="4" x="1165.5" y="918"/><text fill="#000000" font-family="sans-serif" font-size="14" lengthAdjust="spacing" textLength="89" x="1073.5" y="942.1074">CartController</text></g><!--entity OrderController--><g id="elem_OrderController"><rect fill="#F1F1F1" height="48.6211" rx="2.5" ry="2.5" style="stroke:#181818;stroke-width:0.5;" width="139" x="884.5" y="907"/><rect fill="#F1F1F1" height="10" style="stroke:#181818;stroke-width:0.5;" width="15" x="1003.5" y="912"/><rect fill="#F1F1F1" height="2" style="stroke:#181818;stroke-width:0.5;" width="4" x="1001.5" y="914"/><rect fill="#F1F1F1" height="2" style="stroke:#181818;stroke-width:0.5;" width="4" x="1001.5" y="918"/><text fill="#000000" font-family="sans-serif" font-size="14" lengthAdjust="spacing" textLength="99" x="899.5" y="942.1074">OrderController</text></g><!--entity PayPalController--><g id="elem_PayPalController"><rect fill="#F1F1F1" height="48.6211" rx="2.5" ry="2.5" style="stroke:#181818;stroke-width:0.5;" width="146" x="703" y="907"/><rect fill="#F1F1F1" height="10" style="stroke:#181818;stroke-width:0.5;" width="15" x="829" y="912"/><rect fill="#F1F1F1" height="2" style="stroke:#181818;stroke-width:0.5;" width="4" x="827" y="914"/><rect fill="#F1F1F1" height="2" style="stroke:#181818;stroke-width:0.5;" width="4" x="827" y="918"/><text fill="#000000" font-family="sans-serif" font-size="14" lengthAdjust="spacing" textLength="106" x="718" y="942.1074">PayPalController</text></g><!--entity IUser--><g id="elem_IUser"><rect fill="#F1F1F1" height="48.6211" rx="2.5" ry="2.5" style="stroke:#181818;stroke-width:0.5;" width="72" x="349" y="1126"/><rect fill="#F1F1F1" height="10" style="stroke:#181818;stroke-width:0.5;" width="15" x="401" y="1131"/><rect fill="#F1F1F1" height="2" style="stroke:#181818;stroke-width:0.5;" width="4" x="399" y="1133"/><rect fill="#F1F1F1" height="2" style="stroke:#181818;stroke-width:0.5;" width="4" x="399" y="1137"/><text fill="#000000" font-family="sans-serif" font-size="14" lengthAdjust="spacing" textLength="32" x="364" y="1161.1074">IUser</text></g><!--entity IProduct--><g id="elem_IProduct"><rect fill="#F1F1F1" height="48.6211" rx="2.5" ry="2.5" style="stroke:#181818;stroke-width:0.5;" width="92" x="456" y="1126"/><rect fill="#F1F1F1" height="10" style="stroke:#181818;stroke-width:0.5;" width="15" x="528" y="1131"/><rect fill="#F1F1F1" height="2" style="stroke:#181818;stroke-width:0.5;" width="4" x="526" y="1133"/><rect fill="#F1F1F1" height="2" style="stroke:#181818;stroke-width:0.5;" width="4" x="526" y="1137"/><text fill="#000000" font-family="sans-serif" font-size="14" lengthAdjust="spacing" textLength="52" x="471" y="1161.1074">IProduct</text></g><!--entity ICart--><g id="elem_ICart"><rect fill="#F1F1F1" height="48.6211" rx="2.5" ry="2.5" style="stroke:#181818;stroke-width:0.5;" width="70" x="350" y="1289"/><rect fill="#F1F1F1" height="10" style="stroke:#181818;stroke-width:0.5;" width="15" x="400" y="1294"/><rect fill="#F1F1F1" height="2" style="stroke:#181818;stroke-width:0.5;" width="4" x="398" y="1296"/><rect fill="#F1F1F1" height="2" style="stroke:#181818;stroke-width:0.5;" width="4" x="398" y="1300"/><text fill="#000000" font-family="sans-serif" font-size="14" lengthAdjust="spacing" textLength="30" x="365" y="1324.1074">ICart</text></g><!--entity IOrder--><g id="elem_IOrder"><rect fill="#F1F1F1" height="48.6211" rx="2.5" ry="2.5" style="stroke:#181818;stroke-width:0.5;" width="80" x="455" y="1289"/><rect fill="#F1F1F1" height="10" style="stroke:#181818;stroke-width:0.5;" width="15" x="515" y="1294"/><rect fill="#F1F1F1" height="2" style="stroke:#181818;stroke-width:0.5;" width="4" x="513" y="1296"/><rect fill="#F1F1F1" height="2" style="stroke:#181818;stroke-width:0.5;" width="4" x="513" y="1300"/><text fill="#000000" font-family="sans-serif" font-size="14" lengthAdjust="spacing" textLength="40" x="470" y="1324.1074">IOrder</text></g><!--entity express req, res, next ext.--><g id="elem_express req, res, next ext."><rect fill="#F1F1F1" height="48.6211" rx="2.5" ry="2.5" style="stroke:#181818;stroke-width:0.5;" width="202" x="112" y="1126"/><rect fill="#F1F1F1" height="10" style="stroke:#181818;stroke-width:0.5;" width="15" x="294" y="1131"/><rect fill="#F1F1F1" height="2" style="stroke:#181818;stroke-width:0.5;" width="4" x="292" y="1133"/><rect fill="#F1F1F1" height="2" style="stroke:#181818;stroke-width:0.5;" width="4" x="292" y="1137"/><text fill="#000000" font-family="sans-serif" font-size="14" lengthAdjust="spacing" textLength="162" x="127" y="1161.1074">express req, res, next ext.</text></g><!--entity UserDocument--><g id="elem_UserDocument"><rect fill="#F1F1F1" height="48.6211" rx="2.5" ry="2.5" style="stroke:#181818;stroke-width:0.5;" width="133" x="679.5" y="1289"/><rect fill="#F1F1F1" height="10" style="stroke:#181818;stroke-width:0.5;" width="15" x="792.5" y="1294"/><rect fill="#F1F1F1" height="2" style="stroke:#181818;stroke-width:0.5;" width="4" x="790.5" y="1296"/><rect fill="#F1F1F1" height="2" style="stroke:#181818;stroke-width:0.5;" width="4" x="790.5" y="1300"/><text fill="#000000" font-family="sans-serif" font-size="14" lengthAdjust="spacing" textLength="93" x="694.5" y="1324.1074">UserDocument</text></g><!--entity ProductDocument--><g id="elem_ProductDocument"><rect fill="#F1F1F1" height="48.6211" rx="2.5" ry="2.5" style="stroke:#181818;stroke-width:0.5;" width="153" x="847.5" y="1289"/><rect fill="#F1F1F1" height="10" style="stroke:#181818;stroke-width:0.5;" width="15" x="980.5" y="1294"/><rect fill="#F1F1F1" height="2" style="stroke:#181818;stroke-width:0.5;" width="4" x="978.5" y="1296"/><rect fill="#F1F1F1" height="2" style="stroke:#181818;stroke-width:0.5;" width="4" x="978.5" y="1300"/><text fill="#000000" font-family="sans-serif" font-size="14" lengthAdjust="spacing" textLength="113" x="862.5" y="1324.1074">ProductDocument</text></g><!--entity CartDocument--><g id="elem_CartDocument"><rect fill="#F1F1F1" height="48.6211" rx="2.5" ry="2.5" style="stroke:#181818;stroke-width:0.5;" width="131" x="680.5" y="1447"/><rect fill="#F1F1F1" height="10" style="stroke:#181818;stroke-width:0.5;" width="15" x="791.5" y="1452"/><rect fill="#F1F1F1" height="2" style="stroke:#181818;stroke-width:0.5;" width="4" x="789.5" y="1454"/><rect fill="#F1F1F1" height="2" style="stroke:#181818;stroke-width:0.5;" width="4" x="789.5" y="1458"/><text fill="#000000" font-family="sans-serif" font-size="14" lengthAdjust="spacing" textLength="91" x="695.5" y="1482.1074">CartDocument</text></g><!--entity OrderDocument--><g id="elem_OrderDocument"><rect fill="#F1F1F1" height="48.6211" rx="2.5" ry="2.5" style="stroke:#181818;stroke-width:0.5;" width="141" x="846.5" y="1447"/><rect fill="#F1F1F1" height="10" style="stroke:#181818;stroke-width:0.5;" width="15" x="967.5" y="1452"/><rect fill="#F1F1F1" height="2" style="stroke:#181818;stroke-width:0.5;" width="4" x="965.5" y="1454"/><rect fill="#F1F1F1" height="2" style="stroke:#181818;stroke-width:0.5;" width="4" x="965.5" y="1458"/><text fill="#000000" font-family="sans-serif" font-size="14" lengthAdjust="spacing" textLength="101" x="861.5" y="1482.1074">OrderDocument</text></g><!--entity UserModel--><g id="elem_UserModel"><rect fill="#F1F1F1" height="48.6211" rx="2.5" ry="2.5" style="stroke:#181818;stroke-width:0.5;" width="107" x="1132.5" y="1447"/><rect fill="#F1F1F1" height="10" style="stroke:#181818;stroke-width:0.5;" width="15" x="1219.5" y="1452"/><rect fill="#F1F1F1" height="2" style="stroke:#181818;stroke-width:0.5;" width="4" x="1217.5" y="1454"/><rect fill="#F1F1F1" height="2" style="stroke:#181818;stroke-width:0.5;" width="4" x="1217.5" y="1458"/><text fill="#000000" font-family="sans-serif" font-size="14" lengthAdjust="spacing" textLength="67" x="1147.5" y="1482.1074">UserModel</text></g><!--entity ProductModel--><g id="elem_ProductModel"><rect fill="#F1F1F1" height="48.6211" rx="2.5" ry="2.5" style="stroke:#181818;stroke-width:0.5;" width="127" x="1274.5" y="1447"/><rect fill="#F1F1F1" height="10" style="stroke:#181818;stroke-width:0.5;" width="15" x="1381.5" y="1452"/><rect fill="#F1F1F1" height="2" style="stroke:#181818;stroke-width:0.5;" width="4" x="1379.5" y="1454"/><rect fill="#F1F1F1" height="2" style="stroke:#181818;stroke-width:0.5;" width="4" x="1379.5" y="1458"/><text fill="#000000" font-family="sans-serif" font-size="14" lengthAdjust="spacing" textLength="87" x="1289.5" y="1482.1074">ProductModel</text></g><!--entity CartModel--><g id="elem_CartModel"><rect fill="#F1F1F1" height="48.6211" rx="2.5" ry="2.5" style="stroke:#181818;stroke-width:0.5;" width="105" x="1133.5" y="1568"/><rect fill="#F1F1F1" height="10" style="stroke:#181818;stroke-width:0.5;" width="15" x="1218.5" y="1573"/><rect fill="#F1F1F1" height="2" style="stroke:#181818;stroke-width:0.5;" width="4" x="1216.5" y="1575"/><rect fill="#F1F1F1" height="2" style="stroke:#181818;stroke-width:0.5;" width="4" x="1216.5" y="1579"/><text fill="#000000" font-family="sans-serif" font-size="14" lengthAdjust="spacing" textLength="65" x="1148.5" y="1603.1074">CartModel</text></g><!--entity OrderModel--><g id="elem_OrderModel"><rect fill="#F1F1F1" height="48.6211" rx="2.5" ry="2.5" style="stroke:#181818;stroke-width:0.5;" width="115" x="1273.5" y="1568"/><rect fill="#F1F1F1" height="10" style="stroke:#181818;stroke-width:0.5;" width="15" x="1368.5" y="1573"/><rect fill="#F1F1F1" height="2" style="stroke:#181818;stroke-width:0.5;" width="4" x="1366.5" y="1575"/><rect fill="#F1F1F1" height="2" style="stroke:#181818;stroke-width:0.5;" width="4" x="1366.5" y="1579"/><text fill="#000000" font-family="sans-serif" font-size="14" lengthAdjust="spacing" textLength="75" x="1288.5" y="1603.1074">OrderModel</text></g><!--entity MongoDB--><g id="elem_MongoDB"><path d="M1469,1578.5 C1469,1568.5 1510,1568.5 1510,1568.5 C1510,1568.5 1551,1568.5 1551,1578.5 L1551,1606.1211 C1551,1616.1211 1510,1616.1211 1510,1616.1211 C1510,1616.1211 1469,1616.1211 1469,1606.1211 L1469,1578.5 " fill="#F1F1F1" style="stroke:#181818;stroke-width:0.5;"/><path d="M1469,1578.5 C1469,1588.5 1510,1588.5 1510,1588.5 C1510,1588.5 1551,1588.5 1551,1578.5 " fill="none" style="stroke:#181818;stroke-width:0.5;"/><text fill="#000000" font-family="sans-serif" font-size="14" lengthAdjust="spacing" textLength="62" x="1479" y="1607.6074">MongoDB</text></g><!--link request to Server--><g id="link_request_Server"><path d="M1060.56,88.1 C1067.26,122.98 1093.88,261.43 1105.51,321.94 " fill="none" id="request-to-Server" style="stroke:#181818;stroke-width:1.0;"/><polygon fill="#181818" points="1106.46,326.86,1108.6925,317.2675,1105.5179,321.9496,1100.8358,318.7749,1106.46,326.86" style="stroke:#181818;stroke-width:1.0;"/></g><!--reverse link response to Server--><g id="link_response_Server"><path d="M1160.49,93.05 C1152.29,135.74 1126.16,271.66 1115.54,326.86 " fill="none" id="response-backto-Server" style="stroke:#181818;stroke-width:1.0;"/><polygon fill="#181818" points="1161.44,88.1,1155.8158,96.1851,1160.4979,93.0104,1163.6725,97.6925,1161.44,88.1" style="stroke:#181818;stroke-width:1.0;"/></g><!--link Server to middleware--><g id="link_Server_middleware"><path d="M1111,376.25 C1111,386.08 1111,398.1119 1111,410.6666 C1111,413.8052 1111,416.9766 1111,420.1544 C1111,420.9488 1111,421.7437 1111,422.5385 C1111,422.9359 1111,423.3333 1111,423.7307 " fill="none" id="Server-to-middleware" style="stroke:#181818;stroke-width:1.0;"/><polygon fill="#181818" points="1111,423.7307,1115,414.7307,1111,418.7307,1107,414.7307,1111,423.7307" style="stroke:#181818;stroke-width:1.0;"/></g><!--link middleware to ErrorMiddleware--><g id="link_middleware_ErrorMiddleware"><path d="M1115.5803,423.872 C1115.4095,423.3481 1115.2314,422.8272 1115.0456,422.3095 C1114.6742,421.274 1114.2726,420.2514 1113.839,419.2437 C1112.1047,415.2127 1109.86,411.42 1107,408 C1101.88,401.88 1097.43,404.89 1089.5,404 C1043.79,398.84 928.21,398.84 882.5,404 C874.57,404.89 872.02,404.21 865,408 C839.06,422.01 815.29,445.65 798.86,464.54 " fill="none" id="middleware-to-ErrorMiddleware" style="stroke:#181818;stroke-width:1.0;"/><polygon fill="#181818" points="795.26,468.73,804.1541,464.4999,798.514,464.9337,798.0801,459.2935,795.26,468.73" style="stroke:#181818;stroke-width:1.0;"/></g><!--reverse link ErrorMiddleware to routes--><g id="link_ErrorMiddleware_routes"><path d="M763.21,522.95 C757.71,535.9 751.52,551.54 747,566 C745.6075,570.4488 744.2736,575.0592 743.0045,579.727 C742.8459,580.3105 742.6883,580.8948 742.5317,581.4799 C742.4925,581.6262 742.4534,581.7725 742.4144,581.9188 " fill="none" id="ErrorMiddleware-backto-routes" style="stroke:#181818;stroke-width:1.0;"/><polygon fill="#181818" points="765.2,518.3,757.9781,524.9966,763.2304,522.8957,765.3313,528.148,765.2,518.3" style="stroke:#181818;stroke-width:1.0;"/></g><!--link ErrorMiddleware to Server--><g id="link_ErrorMiddleware_Server"><path d="M798.25,464.61 C814.73,445.82 838.79,422 865,408 C929.03,373.79 1013.31,360.61 1064.75,355.57 " fill="none" id="ErrorMiddleware-Server" style="stroke:#181818;stroke-width:1.0;"/><polygon fill="#181818" points="794.64,468.78,803.5511,464.5857,797.9092,464.9968,797.4981,459.355,794.64,468.78" style="stroke:#181818;stroke-width:1.0;"/><polygon fill="#181818" points="1069.93,355.08,1060.5934,351.945,1064.9522,355.5507,1061.3465,359.9095,1069.93,355.08" style="stroke:#181818;stroke-width:1.0;"/></g><!--link middleware to routes--><g id="link_middleware_routes"><path d="M1115.7519,542.0042 C1115.7269,542.1066 1115.7015,542.2088 1115.6757,542.3109 C1115.6242,542.5151 1115.5712,542.7187 1115.5168,542.9218 C1115.299,543.734 1115.0579,544.5373 1114.7919,545.3296 C1114.26,546.9141 1113.6286,548.4549 1112.8859,549.9368 C1111.4005,552.9006 1109.47,555.6288 1107,558 C1092.57,571.85 762.48,553.33 747,566 C743.335,569 740.2842,572.5411 737.752,576.4447 C737.1189,577.4206 736.5183,578.4192 735.9486,579.4376 C735.6637,579.9468 735.3866,580.461 735.117,580.9798 C734.9822,581.2392 734.8492,581.4997 734.7182,581.7614 " fill="none" id="middleware-to-routes" style="stroke:#181818;stroke-width:1.0;"/><polygon fill="#181818" points="734.7182,581.7614,742.325,575.5055,736.9572,577.2908,735.172,571.923,734.7182,581.7614" style="stroke:#181818;stroke-width:1.0;"/></g><!--reverse link AuthorizationMiddleware to routes--><g id="link_AuthorizationMiddleware_routes"><path d="M941.38,521.02 C920.01,534.6 892.17,549.95 865,558 C852.4,561.73 756.98,557.45 747,566 C743.4038,569.0825 740.4048,572.6858 737.9107,576.635 C737.2872,577.6223 736.6952,578.6313 736.1333,579.6591 C735.8524,580.173 735.579,580.6916 735.3129,581.2146 C735.2464,581.3454 735.1803,581.4764 735.1147,581.6077 " fill="none" id="AuthorizationMiddleware-backto-routes" style="stroke:#181818;stroke-width:1.0;"/><polygon fill="#181818" points="945.84,518.15,936.1064,519.6521,941.6341,520.8538,940.4324,526.3815,945.84,518.15" style="stroke:#181818;stroke-width:1.0;"/></g><!--link UserRoute to UserController--><g id="link_UserRoute_UserController"><path d="M1430.09,676.2 C1438.88,727.08 1459.52,846.61 1469.03,901.73 " fill="none" id="UserRoute-to-UserController" style="stroke:#181818;stroke-width:1.0;"/><polygon fill="#181818" points="1469.92,906.86,1472.3188,897.3077,1469.0633,901.9339,1464.4371,898.6785,1469.92,906.86" style="stroke:#181818;stroke-width:1.0;"/></g><!--link ProductRoute to ProductController--><g id="link_ProductRoute_ProductController"><path d="M1276.05,676.2 C1280.44,727.08 1290.76,846.61 1295.52,901.73 " fill="none" id="ProductRoute-to-ProductController" style="stroke:#181818;stroke-width:1.0;"/><polygon fill="#181818" points="1295.96,906.86,1299.1722,897.5497,1295.5306,901.8785,1291.2018,898.2368,1295.96,906.86" style="stroke:#181818;stroke-width:1.0;"/></g><!--link CartRoute to CartController--><g id="link_CartRoute_CartController"><path d="M1123,676.2 C1123,727.08 1123,846.61 1123,901.73 " fill="none" id="CartRoute-to-CartController" style="stroke:#181818;stroke-width:1.0;"/><polygon fill="#181818" points="1123,906.86,1127,897.86,1123,901.86,1119,897.86,1123,906.86" style="stroke:#181818;stroke-width:1.0;"/></g><!--link OrderRoute to OrderController--><g id="link_OrderRoute_OrderController"><path d="M975.95,676.2 C971.56,727.08 961.24,846.61 956.48,901.73 " fill="none" id="OrderRoute-to-OrderController" style="stroke:#181818;stroke-width:1.0;"/><polygon fill="#181818" points="956.04,906.86,960.7982,898.2368,956.4694,901.8785,952.8278,897.5497,956.04,906.86" style="stroke:#181818;stroke-width:1.0;"/></g><!--link PayPalRoute to PayPalController--><g id="link_PayPalRoute_PayPalController"><path d="M819.91,676.2 C811.12,727.08 790.48,846.61 780.97,901.73 " fill="none" id="PayPalRoute-to-PayPalController" style="stroke:#181818;stroke-width:1.0;"/><polygon fill="#181818" points="780.08,906.86,785.5629,898.6785,780.9367,901.9339,777.6812,897.3077,780.08,906.86" style="stroke:#181818;stroke-width:1.0;"/></g><!--link Application layer to Server--><g id="link_Application layer_Server"><path d="M1583.179,872.5049 C1583.2997,871.3859 1583.42,870.2534 1583.5397,869.108 C1587.3694,832.4528 1590.5963,782.4219 1588.4525,727.5313 C1584.165,617.75 1558.395,488.53 1473,408 C1428.27,365.82 1244.52,355.69 1157.33,353.27 " fill="none" id="Application layer-to-Server" style="stroke:#181818;stroke-width:1.0;"/><polygon fill="#181818" points="1152.24,353.13,1161.1342,357.36,1157.2383,353.2585,1161.3398,349.3627,1152.24,353.13" style="stroke:#181818;stroke-width:1.0;"/></g><!--link models to MongoDB--><g id="link_models_MongoDB"><path d="M1445.0977,1485.7013 C1445.1606,1485.8038 1445.2238,1485.9069 1445.2873,1486.0103 C1445.4143,1486.2173 1445.5425,1486.4262 1445.6718,1486.6369 C1445.9304,1487.0584 1446.1936,1487.4874 1446.4612,1487.9236 C1447.5317,1489.6682 1448.6727,1491.528 1449.8736,1493.4853 C1452.2753,1497.3999 1454.9163,1501.7047 1457.71,1506.2588 C1468.885,1524.475 1482.505,1546.68 1493.04,1563.86 " fill="none" id="models-to-MongoDB" style="stroke:#181818;stroke-width:1.0;"/><polygon fill="#181818" points="1495.8,1568.36,1494.4989,1558.5975,1493.1835,1564.0993,1487.6817,1562.7839,1495.8,1568.36" style="stroke:#181818;stroke-width:1.0;"/></g><!--link types to documents--><g id="link_types_documents"><path d="M591.3567,1176.7988 C591.5481,1176.8472 591.7449,1176.895 591.9468,1176.9422 C592.7545,1177.1313 593.6454,1177.3117 594.6166,1177.4839 C598.5012,1178.1724 603.6704,1178.7278 609.9407,1179.1693 C622.4812,1180.0521 639.4259,1180.479 659.3063,1180.6023 C699.0669,1180.8491 750.57,1179.8819 802.0675,1178.9212 C905.0625,1177 1008.035,1175.105 1017,1183 C1027.745,1192.46 1034.3519,1205.1069 1038.2067,1218.7991 C1040.1341,1225.6452 1041.3736,1232.7526 1042.0982,1239.8536 C1042.1888,1240.7413 1042.2713,1241.6288 1042.3462,1242.5157 C1042.3836,1242.9592 1042.4191,1243.4025 1042.4527,1243.8455 " fill="none" id="types-to-documents" style="stroke:#181818;stroke-width:1.0;"/><polygon fill="#181818" points="1042.4527,1243.8455,1045.7605,1234.5688,1042.0745,1238.8599,1037.7835,1235.1739,1042.4527,1243.8455" style="stroke:#181818;stroke-width:1.0;"/></g><!--link documents to models--><g id="link_documents_models"><path d="M1044.4941,1314.8567 C1044.7134,1314.8668 1044.9367,1314.877 1045.1639,1314.8875 C1046.9816,1314.9713 1049.0507,1315.0697 1051.3542,1315.1839 C1060.5681,1315.6408 1073.5306,1316.3501 1089.14,1317.382 C1120.3587,1319.4459 1162.165,1322.8006 1205.745,1328.0088 C1292.905,1338.425 1387.16,1356.255 1418,1386 C1421.355,1389.2363 1424.1761,1392.9278 1426.5434,1396.917 C1427.1352,1397.9142 1427.6987,1398.9301 1428.235,1399.9621 C1428.5032,1400.4781 1428.7646,1400.9982 1429.0193,1401.522 C1429.083,1401.6529 1429.1463,1401.7841 1429.2092,1401.9155 " fill="none" id="documents-to-models" style="stroke:#181818;stroke-width:1.0;"/><polygon fill="#181818" points="1429.2092,1401.9155,1428.9332,1392.0705,1427.0513,1397.4051,1421.7166,1395.5232,1429.2092,1401.9155" style="stroke:#181818;stroke-width:1.0;"/></g><!--reverse link Application layer to models--><g id="link_Application layer_models"><path d="M1583.0563,961.6804 C1583.0837,961.7922 1583.1112,961.9043 1583.1386,962.0166 C1583.1934,962.241 1583.2483,962.4663 1583.3032,962.6923 C1583.7423,964.5 1584.1821,966.3543 1584.6177,968.2449 C1585.4891,972.0261 1586.3441,975.9526 1587.145,979.943 C1588.7469,987.9237 1590.1325,996.16 1591,1004 C1599.35,1079.54 1609.08,1101.18 1591,1175 C1573.66,1245.8 1536.0825,1318.49 1502.39,1374.0587 C1485.5437,1401.8431 1469.6687,1425.3472 1457.7803,1442.1945 C1454.8082,1446.4064 1452.0853,1450.2022 1449.6586,1453.5448 C1448.4452,1455.2161 1447.306,1456.7741 1446.2467,1458.2142 C1445.9818,1458.5742 1445.722,1458.9268 1445.4673,1459.272 C1445.3399,1459.4446 1445.2138,1459.6154 1445.089,1459.7843 " fill="none" id="Application layer-backto-models" style="stroke:#181818;stroke-width:1.0;stroke-dasharray:7.0,7.0;"/><polygon fill="#181818" points="1583.0563,961.6804,1581.3137,971.3738,1584.2466,966.5366,1589.0838,969.4695,1583.0563,961.6804" style="stroke:#181818;stroke-width:1.0;"/></g><!--reverse link Application layer to Data Layer--><g id="link_Application layer_Data Layer"><path d="M1575,980.2789 C1575,981.6674 1575,983.0755 1575,984.5016 C1575,990.2061 1575,996.1996 1575,1002.3857 C1575,1005.4788 1575,1008.62 1575,1011.7973 C1575,1013.386 1575,1014.9837 1575,1016.5889 C1575,1017.3915 1575,1018.1959 1575,1019.0021 C1575,1019.2036 1575,1019.4053 1575,1019.607 C1575,1019.7079 1575,1019.8088 1575,1019.9097 " fill="none" id="Application layer-backto-Data Layer" style="stroke:#181818;stroke-width:1.0;stroke-dasharray:7.0,7.0;"/><polygon fill="#181818" points="1575,980.2789,1571,989.2789,1575,985.2789,1579,989.2789,1575,980.2789" style="stroke:#181818;stroke-width:1.0;"/></g><!--reverse link ErrorMiddleware to express req, res, next ext.--><g id="link_ErrorMiddleware_express req, res, next ext."><path d="M751.29,522.03 C683.28,597.97 487.96,817.15 331,1004 C295.33,1046.46 254.83,1096.9 231.76,1125.86 " fill="none" id="ErrorMiddleware-backto-express req, res, next ext." style="stroke:#181818;stroke-width:1.0;stroke-dasharray:7.0,7.0;"/><polygon fill="#181818" points="754.82,518.09,745.8424,522.1401,751.4902,521.8199,751.8103,527.4677,754.82,518.09" style="stroke:#181818;stroke-width:1.0;"/></g><!--SRC=[ZLHTRziW57tdLw2yj9Ngv7sg9hL9fMPgscXjdwe-C9iwtZ1uW9jcK_xxBlW3Z74qIubipkNSm-NUSxRJkb9V5ekA4QxhairJKIxWLmbEkKwoWkIIb0XnaL4yMx82Ll7vHq7mtVFpzcBs5s5upY-mfBzhghJxL42XA3gYRlCDINzHdk4rVvT4QLcdkfOK6EoU2b2IGzW312S_rGotm02y_Qo0MRKuzXxWB24W5LnBmV0x4tiiPBe3JP9e8MV3SFEyFb7vGUNR03YY66rPP1cZUsBrZdY-FJq-W4QfGZABteiyftBJC_nFFYbgJLKirmia-MxGIAQj51bKTGfU4Zc9FShi12yvR0cBe87uvfvlfHJUSOD315jUhskz4xBuGtGXk5yav7Oq_yU-aMfLSEW239Kjqgw1sifTLnKhKik66JbG_-9jyPPDXp3_hhhAHJ5JjYXWQnQdimKBeUD0w8feWky3XIsc3rNyzjSlyHvRjmU8GKP_RDtAZm2qcJ4pqPTcZYynfvyQmsy-UVlzW9Q2vqAeVgo3WsKYhKkmaCdMNhK1qzrz8iASz0Hi3np7ZrwteV0sIkWwDbPizMuC5kRgfCP1epAEM841v1KvWuxvGHGesfWghsvy3_Ic1A7MZ76IYJrFlZgdwrvmKbUmthkq1xHRVCj3oF_2YIpodJQqmQY_eSwuMlvnm6W5NpcwJcMGhbFKSgDHbcaFyUpI5IDqWQ5lkhY8ANWUwk92W_3Dr4MDt69WgrxMaNV0WSUkXiTbwnhLLQph4s1eBCL1RXAHz-vTVyCLJNqrDr5p5pGHDH-u78fTFiISDfo9vny0]--></g></svg>